<mxfile host="app.diagrams.net" agent="Mozilla/5.0 (Macintosh; Intel Mac OS X 10_15_7) AppleWebKit/537.36 (KHTML, like Gecko) Chrome/133.0.0.0 Safari/537.36" version="24.8.3">
  <diagram name="StrÃ¡nka-1" id="kkc76dls5YAC0644aDbL">
    <mxGraphModel dx="502" dy="274" grid="1" gridSize="10" guides="1" tooltips="1" connect="1" arrows="1" fold="1" page="1" pageScale="1" pageWidth="827" pageHeight="1169" math="0" shadow="0">
      <root>
        <mxCell id="0" />
        <mxCell id="1" parent="0" />
        <mxCell id="tL1ipXAXYH468xp2Y8CK-1" value="a" style="rounded=0;whiteSpace=wrap;html=1;" vertex="1" parent="1">
          <mxGeometry x="350" y="240" width="30" height="30" as="geometry" />
        </mxCell>
        <mxCell id="tL1ipXAXYH468xp2Y8CK-2" value="b" style="rounded=0;whiteSpace=wrap;html=1;" vertex="1" parent="1">
          <mxGeometry x="380" y="240" width="30" height="30" as="geometry" />
        </mxCell>
        <mxCell id="tL1ipXAXYH468xp2Y8CK-3" value="c" style="rounded=0;whiteSpace=wrap;html=1;" vertex="1" parent="1">
          <mxGeometry x="410" y="240" width="30" height="30" as="geometry" />
        </mxCell>
        <mxCell id="tL1ipXAXYH468xp2Y8CK-4" value="d" style="rounded=0;whiteSpace=wrap;html=1;" vertex="1" parent="1">
          <mxGeometry x="440" y="240" width="30" height="30" as="geometry" />
        </mxCell>
        <mxCell id="tL1ipXAXYH468xp2Y8CK-5" value="e" style="rounded=0;whiteSpace=wrap;html=1;" vertex="1" parent="1">
          <mxGeometry x="470" y="240" width="30" height="30" as="geometry" />
        </mxCell>
        <mxCell id="tL1ipXAXYH468xp2Y8CK-6" value="f" style="rounded=0;whiteSpace=wrap;html=1;" vertex="1" parent="1">
          <mxGeometry x="500" y="240" width="30" height="30" as="geometry" />
        </mxCell>
        <mxCell id="tL1ipXAXYH468xp2Y8CK-13" value="g" style="rounded=0;whiteSpace=wrap;html=1;" vertex="1" parent="1">
          <mxGeometry x="530" y="240" width="30" height="30" as="geometry" />
        </mxCell>
        <mxCell id="tL1ipXAXYH468xp2Y8CK-14" value="h" style="rounded=0;whiteSpace=wrap;html=1;" vertex="1" parent="1">
          <mxGeometry x="560" y="240" width="30" height="30" as="geometry" />
        </mxCell>
        <mxCell id="tL1ipXAXYH468xp2Y8CK-15" value="i" style="rounded=0;whiteSpace=wrap;html=1;" vertex="1" parent="1">
          <mxGeometry x="590" y="240" width="30" height="30" as="geometry" />
        </mxCell>
        <mxCell id="tL1ipXAXYH468xp2Y8CK-16" value="j" style="rounded=0;whiteSpace=wrap;html=1;" vertex="1" parent="1">
          <mxGeometry x="620" y="240" width="30" height="30" as="geometry" />
        </mxCell>
        <mxCell id="tL1ipXAXYH468xp2Y8CK-17" value="k" style="rounded=0;whiteSpace=wrap;html=1;" vertex="1" parent="1">
          <mxGeometry x="650" y="240" width="30" height="30" as="geometry" />
        </mxCell>
        <mxCell id="tL1ipXAXYH468xp2Y8CK-18" value="l" style="rounded=0;whiteSpace=wrap;html=1;" vertex="1" parent="1">
          <mxGeometry x="680" y="240" width="30" height="30" as="geometry" />
        </mxCell>
        <mxCell id="tL1ipXAXYH468xp2Y8CK-19" value="0" style="rounded=0;whiteSpace=wrap;html=1;" vertex="1" parent="1">
          <mxGeometry x="350" y="270" width="30" height="30" as="geometry" />
        </mxCell>
        <mxCell id="tL1ipXAXYH468xp2Y8CK-20" value="1" style="rounded=0;whiteSpace=wrap;html=1;" vertex="1" parent="1">
          <mxGeometry x="380" y="270" width="30" height="30" as="geometry" />
        </mxCell>
        <mxCell id="tL1ipXAXYH468xp2Y8CK-21" value="2" style="rounded=0;whiteSpace=wrap;html=1;" vertex="1" parent="1">
          <mxGeometry x="410" y="270" width="30" height="30" as="geometry" />
        </mxCell>
        <mxCell id="tL1ipXAXYH468xp2Y8CK-22" value="3" style="rounded=0;whiteSpace=wrap;html=1;" vertex="1" parent="1">
          <mxGeometry x="440" y="270" width="30" height="30" as="geometry" />
        </mxCell>
        <mxCell id="tL1ipXAXYH468xp2Y8CK-23" value="4" style="rounded=0;whiteSpace=wrap;html=1;" vertex="1" parent="1">
          <mxGeometry x="470" y="270" width="30" height="30" as="geometry" />
        </mxCell>
        <mxCell id="tL1ipXAXYH468xp2Y8CK-24" value="5" style="rounded=0;whiteSpace=wrap;html=1;" vertex="1" parent="1">
          <mxGeometry x="500" y="270" width="30" height="30" as="geometry" />
        </mxCell>
        <mxCell id="tL1ipXAXYH468xp2Y8CK-26" value="n" style="rounded=0;whiteSpace=wrap;html=1;" vertex="1" parent="1">
          <mxGeometry x="350" y="302" width="30" height="30" as="geometry" />
        </mxCell>
        <mxCell id="tL1ipXAXYH468xp2Y8CK-27" value="o" style="rounded=0;whiteSpace=wrap;html=1;" vertex="1" parent="1">
          <mxGeometry x="380" y="302" width="30" height="30" as="geometry" />
        </mxCell>
        <mxCell id="tL1ipXAXYH468xp2Y8CK-28" value="p" style="rounded=0;whiteSpace=wrap;html=1;" vertex="1" parent="1">
          <mxGeometry x="410" y="302" width="30" height="30" as="geometry" />
        </mxCell>
        <mxCell id="tL1ipXAXYH468xp2Y8CK-29" value="q" style="rounded=0;whiteSpace=wrap;html=1;" vertex="1" parent="1">
          <mxGeometry x="440" y="302" width="30" height="30" as="geometry" />
        </mxCell>
        <mxCell id="tL1ipXAXYH468xp2Y8CK-30" value="r" style="rounded=0;whiteSpace=wrap;html=1;" vertex="1" parent="1">
          <mxGeometry x="470" y="302" width="30" height="30" as="geometry" />
        </mxCell>
        <mxCell id="tL1ipXAXYH468xp2Y8CK-31" value="6" style="rounded=0;whiteSpace=wrap;html=1;" vertex="1" parent="1">
          <mxGeometry x="530" y="270" width="30" height="30" as="geometry" />
        </mxCell>
        <mxCell id="tL1ipXAXYH468xp2Y8CK-32" value="7" style="rounded=0;whiteSpace=wrap;html=1;" vertex="1" parent="1">
          <mxGeometry x="560" y="270" width="30" height="30" as="geometry" />
        </mxCell>
        <mxCell id="tL1ipXAXYH468xp2Y8CK-33" value="8" style="rounded=0;whiteSpace=wrap;html=1;" vertex="1" parent="1">
          <mxGeometry x="590" y="270" width="30" height="30" as="geometry" />
        </mxCell>
        <mxCell id="tL1ipXAXYH468xp2Y8CK-34" value="9" style="rounded=0;whiteSpace=wrap;html=1;" vertex="1" parent="1">
          <mxGeometry x="620" y="270" width="30" height="30" as="geometry" />
        </mxCell>
        <mxCell id="tL1ipXAXYH468xp2Y8CK-35" value="10" style="rounded=0;whiteSpace=wrap;html=1;" vertex="1" parent="1">
          <mxGeometry x="650" y="270" width="30" height="30" as="geometry" />
        </mxCell>
        <mxCell id="tL1ipXAXYH468xp2Y8CK-36" value="11" style="rounded=0;whiteSpace=wrap;html=1;" vertex="1" parent="1">
          <mxGeometry x="680" y="270" width="30" height="30" as="geometry" />
        </mxCell>
        <mxCell id="tL1ipXAXYH468xp2Y8CK-37" value="s" style="rounded=0;whiteSpace=wrap;html=1;" vertex="1" parent="1">
          <mxGeometry x="500" y="302" width="30" height="30" as="geometry" />
        </mxCell>
        <mxCell id="tL1ipXAXYH468xp2Y8CK-38" value="t" style="rounded=0;whiteSpace=wrap;html=1;" vertex="1" parent="1">
          <mxGeometry x="530" y="302" width="30" height="30" as="geometry" />
        </mxCell>
        <mxCell id="tL1ipXAXYH468xp2Y8CK-39" value="u" style="rounded=0;whiteSpace=wrap;html=1;" vertex="1" parent="1">
          <mxGeometry x="560" y="302" width="30" height="30" as="geometry" />
        </mxCell>
        <mxCell id="tL1ipXAXYH468xp2Y8CK-40" value="v" style="rounded=0;whiteSpace=wrap;html=1;" vertex="1" parent="1">
          <mxGeometry x="590" y="302" width="30" height="30" as="geometry" />
        </mxCell>
        <mxCell id="tL1ipXAXYH468xp2Y8CK-41" value="w" style="rounded=0;whiteSpace=wrap;html=1;" vertex="1" parent="1">
          <mxGeometry x="620" y="302" width="30" height="30" as="geometry" />
        </mxCell>
        <mxCell id="tL1ipXAXYH468xp2Y8CK-42" value="x" style="rounded=0;whiteSpace=wrap;html=1;" vertex="1" parent="1">
          <mxGeometry x="650" y="302" width="30" height="30" as="geometry" />
        </mxCell>
        <mxCell id="tL1ipXAXYH468xp2Y8CK-44" value="13" style="rounded=0;whiteSpace=wrap;html=1;" vertex="1" parent="1">
          <mxGeometry x="350" y="332" width="30" height="30" as="geometry" />
        </mxCell>
        <mxCell id="tL1ipXAXYH468xp2Y8CK-45" value="14" style="rounded=0;whiteSpace=wrap;html=1;" vertex="1" parent="1">
          <mxGeometry x="380" y="332" width="30" height="30" as="geometry" />
        </mxCell>
        <mxCell id="tL1ipXAXYH468xp2Y8CK-46" value="15" style="rounded=0;whiteSpace=wrap;html=1;" vertex="1" parent="1">
          <mxGeometry x="410" y="332" width="30" height="30" as="geometry" />
        </mxCell>
        <mxCell id="tL1ipXAXYH468xp2Y8CK-47" value="16" style="rounded=0;whiteSpace=wrap;html=1;" vertex="1" parent="1">
          <mxGeometry x="440" y="332" width="30" height="30" as="geometry" />
        </mxCell>
        <mxCell id="tL1ipXAXYH468xp2Y8CK-48" value="17" style="rounded=0;whiteSpace=wrap;html=1;" vertex="1" parent="1">
          <mxGeometry x="470" y="332" width="30" height="30" as="geometry" />
        </mxCell>
        <mxCell id="tL1ipXAXYH468xp2Y8CK-49" value="18" style="rounded=0;whiteSpace=wrap;html=1;" vertex="1" parent="1">
          <mxGeometry x="500" y="332" width="30" height="30" as="geometry" />
        </mxCell>
        <mxCell id="tL1ipXAXYH468xp2Y8CK-50" value="19" style="rounded=0;whiteSpace=wrap;html=1;" vertex="1" parent="1">
          <mxGeometry x="530" y="332" width="30" height="30" as="geometry" />
        </mxCell>
        <mxCell id="tL1ipXAXYH468xp2Y8CK-51" value="20" style="rounded=0;whiteSpace=wrap;html=1;" vertex="1" parent="1">
          <mxGeometry x="560" y="332" width="30" height="30" as="geometry" />
        </mxCell>
        <mxCell id="tL1ipXAXYH468xp2Y8CK-52" value="21" style="rounded=0;whiteSpace=wrap;html=1;" vertex="1" parent="1">
          <mxGeometry x="590" y="332" width="30" height="30" as="geometry" />
        </mxCell>
        <mxCell id="tL1ipXAXYH468xp2Y8CK-53" value="22" style="rounded=0;whiteSpace=wrap;html=1;" vertex="1" parent="1">
          <mxGeometry x="620" y="332" width="30" height="30" as="geometry" />
        </mxCell>
        <mxCell id="tL1ipXAXYH468xp2Y8CK-54" value="23" style="rounded=0;whiteSpace=wrap;html=1;" vertex="1" parent="1">
          <mxGeometry x="650" y="332" width="30" height="30" as="geometry" />
        </mxCell>
        <mxCell id="tL1ipXAXYH468xp2Y8CK-58" value="m" style="rounded=0;whiteSpace=wrap;html=1;" vertex="1" parent="1">
          <mxGeometry x="710" y="240" width="30" height="30" as="geometry" />
        </mxCell>
        <mxCell id="tL1ipXAXYH468xp2Y8CK-59" value="12" style="rounded=0;whiteSpace=wrap;html=1;" vertex="1" parent="1">
          <mxGeometry x="710" y="270" width="30" height="30" as="geometry" />
        </mxCell>
        <mxCell id="tL1ipXAXYH468xp2Y8CK-60" value="y" style="rounded=0;whiteSpace=wrap;html=1;" vertex="1" parent="1">
          <mxGeometry x="680" y="302" width="30" height="30" as="geometry" />
        </mxCell>
        <mxCell id="tL1ipXAXYH468xp2Y8CK-61" value="24" style="rounded=0;whiteSpace=wrap;html=1;" vertex="1" parent="1">
          <mxGeometry x="680" y="332" width="30" height="30" as="geometry" />
        </mxCell>
        <mxCell id="tL1ipXAXYH468xp2Y8CK-62" value="z" style="rounded=0;whiteSpace=wrap;html=1;" vertex="1" parent="1">
          <mxGeometry x="710" y="302" width="30" height="30" as="geometry" />
        </mxCell>
        <mxCell id="tL1ipXAXYH468xp2Y8CK-63" value="25" style="rounded=0;whiteSpace=wrap;html=1;" vertex="1" parent="1">
          <mxGeometry x="710" y="332" width="30" height="30" as="geometry" />
        </mxCell>
      </root>
    </mxGraphModel>
  </diagram>
</mxfile>
